<svg width="1920" height="1080" viewBox="0 0 1920 1080" fill="none" xmlns="http://www.w3.org/2000/svg">
<path d="M2029.92 822.281C2037.47 819.915 2040.86 819.75 2029.92 822.281V822.281Z" fill="#00C454"/>
<path d="M856.703 -510C681.79 -443.367 534.868 -296.577 407.748 -165.543C255.635 -8.74654 105.746 156.745 -19.092 336.491C-47.8599 377.912 -79.6635 431.057 -101.474 478.034C-109.009 494.264 -127.205 533.643 -109.491 531.113C-94.6664 528.995 -62.8107 508.042 -57.2422 504.573C5.61214 465.418 49.5041 433.946 111.669 387.358C354.191 205.609 580.993 3.94002 817.447 -185.447C863.595 -222.409 947.34 -288.59 999.352 -325.331C1014.55 -336.068 1030.16 -346.286 1046.35 -355.464C1053.64 -359.6 1061.7 -368.045 1069.57 -365.14C1074.93 -363.162 1067.21 -353.753 1064.32 -348.829C1056.06 -334.794 1046.24 -321.714 1036.4 -308.744C941.014 -183.105 836.933 -63.278 732.853 55.0648C631.397 170.425 526.356 282.619 425.717 398.693C370.113 462.824 286.116 553.36 249.894 637.27C224.438 696.24 222.747 731.317 277.816 771.348C357.027 828.928 478.651 841.801 567.259 852.625C960.075 900.609 1366.15 891.984 1759.87 859.812C1867.18 851.043 1913.68 845.365 2006.46 827.191C2054.78 817.727 2035.32 818.763 2017.8 826.915C1913.51 875.422 1783.09 938.134 1758.48 1062.73C1746.7 1122.43 1757.37 1188.05 1792.76 1238.27C1817.07 1272.76 1843.7 1277.39 1881.78 1281.4" stroke="#00C454" stroke-width="4" stroke-linecap="round"/>
</svg>
